<svg width="142" height="78" viewBox="0 0 142 78" fill="none" xmlns="http://www.w3.org/2000/svg">
<path fill-rule="evenodd" clip-rule="evenodd" d="M120.768 67.3946H141.546L131.374 77.557L131.078 77.8524H110.299V46.5775H99.7722V36.1394H110.299V10.4184L120.768 0V36.1197H141.546L131.098 46.5578H120.768V67.3946ZM10.4681 46.5578V67.3946H31.3057V56.9762L41.7541 46.5578V67.3946L31.3057 77.8524H0V46.5775L10.4681 36.1394H31.3057V10.4184L41.7738 0V36.1197H41.4781L31.0297 46.5578H10.4681ZM93.996 67.3946V46.5578L83.5476 56.9762V67.3946H62.6903V46.5578H83.2519L93.7003 36.1197H62.6903L52.2222 46.5578V77.8327H83.5279L93.9763 67.3749L93.996 67.3946Z" fill="white"/>
</svg>
